<?xml version="1.0" standalone="no"?><!DOCTYPE svg PUBLIC "-//W3C//DTD SVG 1.1//EN" "http://www.w3.org/Graphics/SVG/1.1/DTD/svg11.dtd"><svg t="1610352610216" class="icon" viewBox="0 0 1024 1024" version="1.1" xmlns="http://www.w3.org/2000/svg" p-id="3492" xmlns:xlink="http://www.w3.org/1999/xlink" width="200" height="200"><defs><style type="text/css"></style></defs><path d="M21.333333 0v1024" fill="" p-id="3493"></path><path d="M42.666667 0v1024" fill="" p-id="3494"></path><path d="M64 0v1024" fill="" p-id="3495"></path><path d="M85.333333 0v1024" fill="" p-id="3496"></path><path d="M106.666667 0v1024" fill="" p-id="3497"></path><path d="M128 0v1024" fill="" p-id="3498"></path><path d="M149.333333 0v1024" fill="" p-id="3499"></path><path d="M170.666667 0v1024" fill="" p-id="3500"></path><path d="M192 0v1024" fill="" p-id="3501"></path><path d="M213.333333 0v1024" fill="" p-id="3502"></path><path d="M234.666667 0v1024" fill="" p-id="3503"></path><path d="M256 0v1024" fill="" p-id="3504"></path><path d="M277.333333 0v1024" fill="" p-id="3505"></path><path d="M298.666667 0v1024" fill="" p-id="3506"></path><path d="M320 0v1024" fill="" p-id="3507"></path><path d="M341.333333 0v1024" fill="" p-id="3508"></path><path d="M362.666667 0v1024" fill="" p-id="3509"></path><path d="M384 0v1024" fill="" p-id="3510"></path><path d="M405.333333 0v1024" fill="" p-id="3511"></path><path d="M426.666667 0v1024" fill="" p-id="3512"></path><path d="M448 0v1024" fill="" p-id="3513"></path><path d="M469.333333 0v1024" fill="" p-id="3514"></path><path d="M490.666667 0v1024" fill="" p-id="3515"></path><path d="M512 0v1024" fill="" p-id="3516"></path><path d="M533.333333 0v1024" fill="" p-id="3517"></path><path d="M554.666667 0v1024" fill="" p-id="3518"></path><path d="M576 0v1024" fill="" p-id="3519"></path><path d="M597.333333 0v1024" fill="" p-id="3520"></path><path d="M618.666667 0v1024" fill="" p-id="3521"></path><path d="M640 0v1024" fill="" p-id="3522"></path><path d="M661.333333 0v1024" fill="" p-id="3523"></path><path d="M682.666667 0v1024" fill="" p-id="3524"></path><path d="M704 0v1024" fill="" p-id="3525"></path><path d="M725.333333 0v1024" fill="" p-id="3526"></path><path d="M746.666667 0v1024" fill="" p-id="3527"></path><path d="M768 0v1024" fill="" p-id="3528"></path><path d="M789.333333 0v1024" fill="" p-id="3529"></path><path d="M810.666667 0v1024" fill="" p-id="3530"></path><path d="M832 0v1024" fill="" p-id="3531"></path><path d="M853.333333 0v1024" fill="" p-id="3532"></path><path d="M874.666667 0v1024" fill="" p-id="3533"></path><path d="M896 0v1024" fill="" p-id="3534"></path><path d="M917.333333 0v1024" fill="" p-id="3535"></path><path d="M938.666667 0v1024" fill="" p-id="3536"></path><path d="M960 0v1024" fill="" p-id="3537"></path><path d="M981.333333 0v1024" fill="" p-id="3538"></path><path d="M1002.666667 0v1024M0 21.333333h1024" fill="" p-id="3539"></path><path d="M0 42.666667h1024" fill="" p-id="3540"></path><path d="M0 64h1024" fill="" p-id="3541"></path><path d="M0 85.333333h1024" fill="" p-id="3542"></path><path d="M0 106.666667h1024" fill="" p-id="3543"></path><path d="M0 128h1024" fill="" p-id="3544"></path><path d="M0 149.333333h1024" fill="" p-id="3545"></path><path d="M0 170.666667h1024" fill="" p-id="3546"></path><path d="M0 192h1024" fill="" p-id="3547"></path><path d="M0 213.333333h1024" fill="" p-id="3548"></path><path d="M0 234.666667h1024" fill="" p-id="3549"></path><path d="M0 256h1024" fill="" p-id="3550"></path><path d="M0 277.333333h1024" fill="" p-id="3551"></path><path d="M0 298.666667h1024" fill="" p-id="3552"></path><path d="M0 320h1024" fill="" p-id="3553"></path><path d="M0 341.333333h1024" fill="" p-id="3554"></path><path d="M0 362.666667h1024" fill="" p-id="3555"></path><path d="M0 384h1024" fill="" p-id="3556"></path><path d="M0 405.333333h1024" fill="" p-id="3557"></path><path d="M0 426.666667h1024" fill="" p-id="3558"></path><path d="M0 448h1024" fill="" p-id="3559"></path><path d="M0 469.333333h1024" fill="" p-id="3560"></path><path d="M0 490.666667h1024" fill="" p-id="3561"></path><path d="M0 512h1024" fill="" p-id="3562"></path><path d="M0 533.333333h1024" fill="" p-id="3563"></path><path d="M0 554.666667h1024" fill="" p-id="3564"></path><path d="M0 576h1024" fill="" p-id="3565"></path><path d="M0 597.333333h1024" fill="" p-id="3566"></path><path d="M0 618.666667h1024" fill="" p-id="3567"></path><path d="M0 640h1024" fill="" p-id="3568"></path><path d="M0 661.333333h1024" fill="" p-id="3569"></path><path d="M0 682.666667h1024" fill="" p-id="3570"></path><path d="M0 704h1024" fill="" p-id="3571"></path><path d="M0 725.333333h1024" fill="" p-id="3572"></path><path d="M0 746.666667h1024" fill="" p-id="3573"></path><path d="M0 768h1024" fill="" p-id="3574"></path><path d="M0 789.333333h1024" fill="" p-id="3575"></path><path d="M0 810.666667h1024" fill="" p-id="3576"></path><path d="M0 832h1024" fill="" p-id="3577"></path><path d="M0 853.333333h1024" fill="" p-id="3578"></path><path d="M0 874.666667h1024" fill="" p-id="3579"></path><path d="M0 896h1024" fill="" p-id="3580"></path><path d="M0 917.333333h1024" fill="" p-id="3581"></path><path d="M0 938.666667h1024" fill="" p-id="3582"></path><path d="M0 960h1024" fill="" p-id="3583"></path><path d="M0 981.333333h1024" fill="" p-id="3584"></path><path d="M0 1002.666667h1024" fill="" p-id="3585"></path><path d="M810 274L572 512l238 238-60 60L512 572 274 810l-60-60L452 512 214 274l60-60L512 452l238-238z" fill="" p-id="3586"></path></svg>